<svg xmlns="http://www.w3.org/2000/svg" width="156.662" height="103.256" viewBox="0 0 156.662 103.256">
  <path id="Path_26526" data-name="Path 26526" d="M156.662,113.92a11.006,11.006,0,0,0-2.25-6.779L142,91.258a10.675,10.675,0,0,0-8.4-3.989,10.349,10.349,0,0,0-5.49,1.538L116,96.337a11.044,11.044,0,0,1-5.563,1.355,10.08,10.08,0,0,1-4.265-.837L94.321,91.114a14.276,14.276,0,0,0-6.186-1.3,15.413,15.413,0,0,0-8.7,2.506l-1.383.97c-1.106-.552-2.795-1.392-4.708-2.344a17.761,17.761,0,0,0-7.719-1.588,18.469,18.469,0,0,0-7.085,1.3L50.467,94.1a14.766,14.766,0,0,1-5.48.933,14.746,14.746,0,0,1-5.476-.933l-8.08-3.447a11.755,11.755,0,0,0-4.611-.9,14.033,14.033,0,0,0-5.246,1.029,11.924,11.924,0,0,0-4.426,3.046L2.437,110.306a9.553,9.553,0,0,0,.933,13.656L17.093,135.67l-6.51,6.791a9.7,9.7,0,0,0,.333,13.736l1.321,1.255a9.682,9.682,0,0,0,4.3,2.332,9.59,9.59,0,0,0,1.807,11.648l0,0,1.325,1.26A9.825,9.825,0,0,0,30.215,174.6a9.6,9.6,0,0,0,2.7,4.7l1.325,1.26A9.8,9.8,0,0,0,46.386,181.6a9.628,9.628,0,0,0,2.538,4.171l1.325,1.26a9.817,9.817,0,0,0,13.8-.328l5.753-6.008,7.817,7.235a9.81,9.81,0,0,0,13.793-.5l1.248-1.337a9.626,9.626,0,0,0,2.188-3.956l3.028,2.795a9.824,9.824,0,0,0,13.8-.509l1.241-1.335a9.593,9.593,0,0,0,2.489-5.364,9.556,9.556,0,0,0,9.582-2.75l1.244-1.335a9.67,9.67,0,0,0,2.6-6.612,9.92,9.92,0,0,0-.267-2.179,9.676,9.676,0,0,0,5.855-2.964l1.248-1.337a9.712,9.712,0,0,0-.507-13.736l-2.334-2.156L153.9,121.373A11.091,11.091,0,0,0,156.662,113.92ZM14.592,152.363a4.416,4.416,0,0,1-.153-6.243l13.333-13.914a4.474,4.474,0,0,1,6.277-.15l1.317,1.257a8.359,8.359,0,0,1,1.367,3.2,4.4,4.4,0,0,1-.789,2.5c-.045.044-14.391,15-14.391,15a4.488,4.488,0,0,1-2.579.821,4.431,4.431,0,0,1-3.06-1.21Zm11.819,17.7a4.428,4.428,0,0,1-3.06-1.21L22.026,167.6l0,0a4.43,4.43,0,0,1-.15-6.243s17.773-18.5,17.923-18.68a4.451,4.451,0,0,1,6.135-.03l1.325,1.26h0a4.422,4.422,0,0,1,.149,6.245l-17.78,18.561A4.432,4.432,0,0,1,26.411,170.065Zm14.569,7.869a4.422,4.422,0,0,1-3.06-1.212l-1.328-1.259a4.388,4.388,0,0,1-.386-5.948L48.582,156.6a4.437,4.437,0,0,1,6.026.06l1.328,1.26h0a4.42,4.42,0,0,1,.15,6.243l-11.9,12.413A4.419,4.419,0,0,1,40.979,177.933ZM60.2,183.048a4.472,4.472,0,0,1-6.273.148L52.6,181.937a4.42,4.42,0,0,1-.149-6.243l7.507-7.838a4.476,4.476,0,0,1,6.277-.148l1.328,1.259h0a4.425,4.425,0,0,1,.146,6.243Zm71.576-26.1-1.244,1.335a4.474,4.474,0,0,1-6.271.228l-20.97-19.393L99.661,143,122.108,163.8a4.418,4.418,0,0,1,.229,6.245l-1.241,1.335a4.471,4.471,0,0,1-6.268.23L93.853,152.212l-3.623,3.883,18.615,17.214a4.412,4.412,0,0,1,.182,6.181l-1.244,1.335a4.479,4.479,0,0,1-6.275.231L82.93,163.9h0l0,0-3.615,3.89,0,0h0l.069.066,9.3,8.588a4.372,4.372,0,0,1,.08,6.047l-1.244,1.337a4.463,4.463,0,0,1-6.261.226l-8.1-7.5a9.564,9.564,0,0,0-1.919-11.423l-1.328-1.26A9.759,9.759,0,0,0,63.18,161.2c-.187,0-.376.043-.559.054,0-.045.011-.091.011-.135,0-2.555-3.017-7.037-3.017-7.037l-1.325-1.257a9.729,9.729,0,0,0-4.913-2.5,9.574,9.574,0,0,0-2.441-10.25l-1.325-1.26a9.778,9.778,0,0,0-6.734-2.677c-.281,0-.559.057-.838.082a9.672,9.672,0,0,0-2.987-6.731v0l-1.321-1.255a9.811,9.811,0,0,0-13.8.324l-3.147,3.284L6.838,119.943a4.274,4.274,0,0,1-.415-6.109L21.135,97.358A6.715,6.715,0,0,1,23.593,95.7a8.756,8.756,0,0,1,3.233-.636,6.452,6.452,0,0,1,2.514.472l8.076,3.446a19.874,19.874,0,0,0,7.577,1.362,19.872,19.872,0,0,0,7.576-1.362l8.073-3.445a13.227,13.227,0,0,1,4.99-.872,12.676,12.676,0,0,1,5.333,1.027c.762.379,1.485.739,2.156,1.075l-8.233,5.787a9.51,9.51,0,0,0-2.17,13.5l0,0,1.087,1.462a10.629,10.629,0,0,0,8.5,4.164,10.329,10.329,0,0,0,5.319-1.449l4.924-2.957a8.11,8.11,0,0,1,4.089-1,8.514,8.514,0,0,1,4.815,1.355l13.622,9.766a136.054,136.054,0,0,1,10.706,8.735l15.767,14.578a4.416,4.416,0,0,1,.226,6.24Zm18.169-39.119-21,23.226-9.536-8.816a140.322,140.322,0,0,0-11.217-9.152l-13.618-9.766a13.765,13.765,0,0,0-7.931-2.353,13.407,13.407,0,0,0-6.843,1.757l-4.92,2.957a5,5,0,0,1-2.569.687,5.31,5.31,0,0,1-4.228-2.02l-1.084-1.46,0,0a4.219,4.219,0,0,1,.967-6.006L82.513,96.65a10.247,10.247,0,0,1,5.625-1.534,9.024,9.024,0,0,1,3.856.767l11.852,5.741a15.309,15.309,0,0,0,6.6,1.373,16.215,16.215,0,0,0,8.383-2.163L130.932,93.3a5.03,5.03,0,0,1,2.667-.732,5.371,5.371,0,0,1,4.2,1.946L150.211,110.4a5.779,5.779,0,0,1,1.131,3.523A5.891,5.891,0,0,1,149.942,117.829Z" transform="translate(0 -87.269)" fill="#5ea965"/>
</svg>
